<?xml version="1.0" encoding="utf-8"?>
<svg version="1.1" id="logo_by_moky" xmlns="http://www.w3.org/2000/svg" x="0px" y="0px" viewBox="0 0 484.7 484.7"
     style="enable-background:new 0 0 484.7 484.7;" xml:space="preserve">
	<style type="text/css">
		.st0{fill:#0457D4;}
		.st1{fill:#FFFF00;}
	</style>
    <title>pluginicon</title>
    <g id="Layer_2">
		<circle class="st0" cx="242.4" cy="242.4" r="242.5"/>
	</g>
    <g>
		<path class="st1" d="M41.2,284.6v-1.7c0-4,0.7-6.6,2-7.7s4-1.3,7.8-0.3c8.6,2.3,17.2,3.4,25.9,3.4c6.8,0,11.6-0.7,14.4-2
		c2.8-1.4,4.2-3.7,4.2-7.1c0-2.5-0.9-4.7-2.7-6.5c-1.8-1.8-5.4-4.3-10.9-7.5l-21.8-12.8c-11.5-6.7-17.2-16.2-17.2-28.6
		c0-9.5,3.1-16.7,9.4-21.5c6.3-4.8,16.4-7.1,30.2-7.1c7.7,0,14.8,0.9,21.3,2.7c4.1,1.1,6.8,2.4,8.1,3.9c1.3,1.5,2,4.1,2,8v1.7
		c0,4.1-0.7,6.7-2,7.7c-1.4,1.1-4,1.1-8-0.1c-5.9-1.8-13-2.7-21.3-2.7c-5.8,0-9.9,0.6-12.4,1.7c-2.5,1.1-3.7,3.2-3.7,6.3
		c0,2,0.7,3.8,2,5.2c1.3,1.4,3.8,3.2,7.4,5.4l22.6,13.3c7.2,4.2,12.4,8.6,15.7,13.1c3.3,4.5,4.9,10.4,4.9,17.7
		c0,10-3.3,17.6-10,22.7c-6.6,5.2-17.4,7.7-32.4,7.7c-9.4,0-18-1.1-25.7-3.2c-4-1.1-6.6-2.4-7.8-3.8
		C41.8,291.1,41.2,288.4,41.2,284.6z"/>
        <path class="st1" d="M228.3,196.4l-16.9,70.5c-2.8,12.1-6.3,20.6-10.4,25.3c-4.1,4.7-11.1,7.1-21.1,7.1c-10,0-17-2.4-21.1-7.1
		c-4.1-4.7-7.5-13.1-10.4-25.3l-16.9-70.5c-0.9-3.9-0.9-6.4,0.2-7.7c1-1.2,3.5-1.9,7.5-1.9h3.9c4,0,6.8,0.7,8.4,2
		c1.6,1.3,2.9,3.9,3.7,7.7l15.8,69.3c1.2,5.4,2.4,9,3.4,10.6c1,1.6,2.8,2.4,5.4,2.4c2.6,0,4.4-0.8,5.4-2.4c1-1.6,2.2-5.1,3.4-10.6
		l15.8-69.3c0.8-3.9,2-6.4,3.7-7.7c1.6-1.3,4.5-2,8.4-2h3.9c4,0,6.4,0.6,7.4,1.9C229,190,229,192.5,228.3,196.4z"/>
        <path class="st1" d="M307.4,272.3v-27.9c0-3.9,0.7-6.5,2-7.8c1.4-1.4,4-2,7.8-2h1.4c3.9,0,6.5,0.7,7.8,2c1.4,1.4,2,4,2,7.8v29.5
		c0,7.7-1.3,13.4-3.7,17.2c-2.5,3.7-7.2,6.2-14.1,7.3c-4.5,0.8-9.3,1.2-14.3,1.2c-18.8,0-32.5-3.3-40.9-10
		c-8.4-6.6-12.6-17.9-12.6-33.8v-27.2c0-13,4.3-23.5,12.9-31.5c8.6-7.9,21.8-11.9,39.7-11.9c7.9,0,15.3,1.1,22.1,3.4
		c3.6,1.3,6.1,2.7,7.3,4.3c1.2,1.6,1.9,4.3,1.9,8v1.4c0,4-0.7,6.5-2,7.7c-1.3,1.1-3.8,1.1-7.4,0c-7-2.3-14.1-3.4-21.3-3.4
		c-11,0-18.7,1.8-23.2,5.4c-4.4,3.6-6.6,9.7-6.6,18.5v27.2c0,6.6,2.1,11.7,6.4,15.3c4.3,3.6,12.2,5.4,23.7,5.4
		c2.5,0,4.7-0.1,6.5-0.3C305.9,277.7,307.4,275.8,307.4,272.3z"/>
        <path class="st1" d="M423.7,217.5l19.1,70.5c1,3.9,1,6.4,0.1,7.7c-1,1.2-3.4,1.9-7.4,1.9h-3.2c-4,0-6.8-0.6-8.4-1.9
		c-1.6-1.2-3-3.8-4-7.7l-4.4-17.4h-44.9L366,288c-1,3.9-2.4,6.4-4,7.7c-1.6,1.2-4.5,1.9-8.4,1.9h-3.2c-4,0-6.4-0.6-7.4-1.9
		c-1-1.2-0.9-3.8,0.1-7.7l19.1-70.5c1.7-6.4,3.2-11.2,4.5-14.6c1.3-3.3,3.1-6.6,5.4-9.6c2.3-3.1,5-5.2,8.3-6.4
		c3.3-1.2,7.5-1.8,12.6-1.8c5.1,0,9.3,0.6,12.6,1.8c3.3,1.2,6.1,3.3,8.3,6.4c2.3,3.1,4.1,6.3,5.4,9.6
		C420.5,206.3,422,211.1,423.7,217.5z M384,218.5l-8.3,31.7h34.2l-8.2-31.7c-1.5-5.6-2.7-9.1-3.6-10.6c-0.9-1.5-2.7-2.3-5.3-2.3
		c-2.6,0-4.4,0.8-5.3,2.3C386.7,209.4,385.5,213,384,218.5z"/>
	</g>
</svg>
