<?xml version="1.0" standalone="no"?><!DOCTYPE svg PUBLIC "-//W3C//DTD SVG 1.1//EN" "http://www.w3.org/Graphics/SVG/1.1/DTD/svg11.dtd"><svg t="1679164168805" class="icon" viewBox="0 0 1024 1024" version="1.1" xmlns="http://www.w3.org/2000/svg" p-id="5273" xmlns:xlink="http://www.w3.org/1999/xlink" width="16" height="16"><path d="M811.707317 1024h-599.414634C94.907317 1024 0 929.092683 0 811.707317v-599.414634C0 94.907317 94.907317 0 212.292683 0h599.414634C929.092683 0 1024 94.907317 1024 212.292683v599.414634c0 117.385366-94.907317 212.292683-212.292683 212.292683zM212.292683 24.97561C109.892683 24.97561 24.97561 109.892683 24.97561 212.292683v599.414634C24.97561 914.107317 109.892683 999.02439 212.292683 999.02439h599.414634c102.4 0 187.317073-84.917073 187.317073-187.317073v-599.414634C999.02439 109.892683 914.107317 24.97561 811.707317 24.97561h-599.414634z" p-id="5274" fill="#1296db"></path><path d="M124.878049 664.35122h92.409756c27.473171-2.497561 64.936585-7.492683 117.385366-12.487805 9.990244 57.443902 29.970732 97.404878 62.439024 124.878048 29.970732 27.473171 72.429268 39.960976 124.878049 39.960976 54.946341 0 97.404878-12.487805 127.37561-34.965854s42.458537-52.44878 42.458536-82.419512c0-19.980488-4.995122-37.463415-17.482927-52.44878s-32.468293-27.473171-62.439024-37.463415c-19.980488-7.492683-67.434146-19.980488-139.863415-37.463415-92.409756-22.478049-157.346341-52.44878-194.809756-84.917073C224.780488 442.068293 199.804878 384.62439 199.804878 314.692683c0-44.956098 12.487805-84.917073 37.463415-122.380488s59.941463-67.434146 107.395122-87.414634S447.063415 74.926829 514.497561 74.926829c107.395122 0 189.814634 22.478049 242.263415 69.931708s82.419512 109.892683 84.917073 189.814634l-172.331708 7.492683c-7.492683-44.956098-22.478049-74.926829-47.453658-94.907317s-59.941463-29.970732-109.892683-29.970732c-49.95122 0-89.912195 9.990244-117.385366 29.970732-17.482927 12.487805-27.473171 29.970732-27.473171 52.44878 0 19.980488 7.492683 37.463415 24.97561 52.448781 22.478049 17.482927 74.926829 37.463415 159.843903 57.443902s147.356098 39.960976 187.317073 62.439024 72.429268 49.95122 94.907317 87.414635 34.965854 82.419512 34.965854 137.365853c0 49.95122-12.487805 94.907317-39.960976 137.365854-27.473171 42.458537-64.936585 74.926829-114.887805 94.907317s-112.390244 32.468293-187.317073 32.468293c-107.395122 0-192.312195-24.97561-249.756098-74.92683-44.956098-39.960976-77.42439-92.409756-92.409756-159.843902-9.990244-14.985366-57.443902-39.960976-59.941463-62.439024z" p-id="5275" fill="#1296db"></path></svg>